<?xml version="1.0" encoding="UTF-8" standalone="no"?><svg xmlns="http://www.w3.org/2000/svg" xmlns:xlink="http://www.w3.org/1999/xlink" contentScriptType="application/ecmascript" contentStyleType="text/css" height="499px" preserveAspectRatio="none" style="width:333px;height:499px;" version="1.1" viewBox="0 0 333 499" width="333px" zoomAndPan="magnify"><defs><filter height="300%" id="frb3qi5f6qzwr" width="300%" x="-1" y="-1"><feGaussianBlur result="blurOut" stdDeviation="2.0"/><feColorMatrix in="blurOut" result="blurOut2" type="matrix" values="0 0 0 0 0 0 0 0 0 0 0 0 0 0 0 0 0 0 .4 0"/><feOffset dx="4.0" dy="4.0" in="blurOut2" result="blurOut3"/><feBlend in="SourceGraphic" in2="blurOut3" mode="normal"/></filter></defs><g><!--class ScheduledExecutorService--><rect fill="#FEFECE" filter="url(#frb3qi5f6qzwr)" height="48" id="ScheduledExecutorService" style="stroke: #A80036; stroke-width: 1.5;" width="180" x="82" y="8"/><ellipse cx="97" cy="24" fill="#B4A7E5" rx="11" ry="11" style="stroke: #A80036; stroke-width: 1.0;"/><path d="M93.5938,18.2813 L93.5938,17.875 L99.9063,17.875 L99.9063,18.2813 L97.375,18.2813 Q97.375,18.2813 97.5234,18.4141 Q97.6719,18.5469 97.6719,18.8125 L97.6719,28.2969 Q97.6719,28.5625 97.8906,28.6953 Q98.1094,28.8281 98.1094,28.8281 L99.9063,28.8281 L99.9063,29.2344 L93.5938,29.2344 L93.5938,28.8281 L95.125,28.8281 Q95.4531,28.8281 95.5859,28.6953 Q95.7188,28.5625 95.7188,28.2969 L95.7188,18.8125 Q95.7188,18.5469 95.5859,18.4141 Q95.4531,18.2813 95.125,18.2813 L93.5938,18.2813 Z "/><text fill="#000000" font-family="sans-serif" font-size="12" font-style="italic" lengthAdjust="spacingAndGlyphs" textLength="148" x="111" y="29.5576">ScheduledExecutorService</text><line style="stroke: #A80036; stroke-width: 1.5;" x1="83" x2="261" y1="40" y2="40"/><line style="stroke: #A80036; stroke-width: 1.5;" x1="83" x2="261" y1="48" y2="48"/><!--class EventExecutorGroup--><rect fill="#FEFECE" filter="url(#frb3qi5f6qzwr)" height="48" id="EventExecutorGroup" style="stroke: #A80036; stroke-width: 1.5;" width="145" x="99.5" y="116"/><ellipse cx="114.5" cy="132" fill="#B4A7E5" rx="11" ry="11" style="stroke: #A80036; stroke-width: 1.0;"/><path d="M111.0938,126.2813 L111.0938,125.875 L117.4063,125.875 L117.4063,126.2813 L114.875,126.2813 Q114.875,126.2813 115.0234,126.4141 Q115.1719,126.5469 115.1719,126.8125 L115.1719,136.2969 Q115.1719,136.5625 115.3906,136.6953 Q115.6094,136.8281 115.6094,136.8281 L117.4063,136.8281 L117.4063,137.2344 L111.0938,137.2344 L111.0938,136.8281 L112.625,136.8281 Q112.9531,136.8281 113.0859,136.6953 Q113.2188,136.5625 113.2188,136.2969 L113.2188,126.8125 Q113.2188,126.5469 113.0859,126.4141 Q112.9531,126.2813 112.625,126.2813 L111.0938,126.2813 Z "/><text fill="#000000" font-family="sans-serif" font-size="12" font-style="italic" lengthAdjust="spacingAndGlyphs" textLength="113" x="128.5" y="137.5576">EventExecutorGroup</text><line style="stroke: #A80036; stroke-width: 1.5;" x1="100.5" x2="243.5" y1="148" y2="148"/><line style="stroke: #A80036; stroke-width: 1.5;" x1="100.5" x2="243.5" y1="156" y2="156"/><!--class EventExecutor--><rect fill="#FEFECE" filter="url(#frb3qi5f6qzwr)" height="48" id="EventExecutor" style="stroke: #A80036; stroke-width: 1.5;" width="111" x="45.5" y="224"/><ellipse cx="60.5" cy="240" fill="#B4A7E5" rx="11" ry="11" style="stroke: #A80036; stroke-width: 1.0;"/><path d="M57.0938,234.2813 L57.0938,233.875 L63.4063,233.875 L63.4063,234.2813 L60.875,234.2813 Q60.875,234.2813 61.0234,234.4141 Q61.1719,234.5469 61.1719,234.8125 L61.1719,244.2969 Q61.1719,244.5625 61.3906,244.6953 Q61.6094,244.8281 61.6094,244.8281 L63.4063,244.8281 L63.4063,245.2344 L57.0938,245.2344 L57.0938,244.8281 L58.625,244.8281 Q58.9531,244.8281 59.0859,244.6953 Q59.2188,244.5625 59.2188,244.2969 L59.2188,234.8125 Q59.2188,234.5469 59.0859,234.4141 Q58.9531,234.2813 58.625,234.2813 L57.0938,234.2813 Z "/><text fill="#000000" font-family="sans-serif" font-size="12" font-style="italic" lengthAdjust="spacingAndGlyphs" textLength="79" x="74.5" y="245.5576">EventExecutor</text><line style="stroke: #A80036; stroke-width: 1.5;" x1="46.5" x2="155.5" y1="256" y2="256"/><line style="stroke: #A80036; stroke-width: 1.5;" x1="46.5" x2="155.5" y1="264" y2="264"/><!--class OrderedEventExecutor--><rect fill="#FEFECE" filter="url(#frb3qi5f6qzwr)" height="48" id="OrderedEventExecutor" style="stroke: #A80036; stroke-width: 1.5;" width="156" x="6" y="332"/><ellipse cx="21" cy="348" fill="#B4A7E5" rx="11" ry="11" style="stroke: #A80036; stroke-width: 1.0;"/><path d="M17.5938,342.2813 L17.5938,341.875 L23.9063,341.875 L23.9063,342.2813 L21.375,342.2813 Q21.375,342.2813 21.5234,342.4141 Q21.6719,342.5469 21.6719,342.8125 L21.6719,352.2969 Q21.6719,352.5625 21.8906,352.6953 Q22.1094,352.8281 22.1094,352.8281 L23.9063,352.8281 L23.9063,353.2344 L17.5938,353.2344 L17.5938,352.8281 L19.125,352.8281 Q19.4531,352.8281 19.5859,352.6953 Q19.7188,352.5625 19.7188,352.2969 L19.7188,342.8125 Q19.7188,342.5469 19.5859,342.4141 Q19.4531,342.2813 19.125,342.2813 L17.5938,342.2813 Z "/><text fill="#000000" font-family="sans-serif" font-size="12" font-style="italic" lengthAdjust="spacingAndGlyphs" textLength="124" x="35" y="353.5576">OrderedEventExecutor</text><line style="stroke: #A80036; stroke-width: 1.5;" x1="7" x2="161" y1="364" y2="364"/><line style="stroke: #A80036; stroke-width: 1.5;" x1="7" x2="161" y1="372" y2="372"/><!--class EventLoopGroup--><rect fill="#FEFECE" filter="url(#frb3qi5f6qzwr)" height="48" id="EventLoopGroup" style="stroke: #A80036; stroke-width: 1.5;" width="125" x="197.5" y="332"/><ellipse cx="212.5" cy="348" fill="#B4A7E5" rx="11" ry="11" style="stroke: #A80036; stroke-width: 1.0;"/><path d="M209.0938,342.2813 L209.0938,341.875 L215.4063,341.875 L215.4063,342.2813 L212.875,342.2813 Q212.875,342.2813 213.0234,342.4141 Q213.1719,342.5469 213.1719,342.8125 L213.1719,352.2969 Q213.1719,352.5625 213.3906,352.6953 Q213.6094,352.8281 213.6094,352.8281 L215.4063,352.8281 L215.4063,353.2344 L209.0938,353.2344 L209.0938,352.8281 L210.625,352.8281 Q210.9531,352.8281 211.0859,352.6953 Q211.2188,352.5625 211.2188,352.2969 L211.2188,342.8125 Q211.2188,342.5469 211.0859,342.4141 Q210.9531,342.2813 210.625,342.2813 L209.0938,342.2813 Z "/><text fill="#000000" font-family="sans-serif" font-size="12" font-style="italic" lengthAdjust="spacingAndGlyphs" textLength="93" x="226.5" y="353.5576">EventLoopGroup</text><line style="stroke: #A80036; stroke-width: 1.5;" x1="198.5" x2="321.5" y1="364" y2="364"/><line style="stroke: #A80036; stroke-width: 1.5;" x1="198.5" x2="321.5" y1="372" y2="372"/><!--class EventLoop--><rect fill="#FEFECE" filter="url(#frb3qi5f6qzwr)" height="48" id="EventLoop" style="stroke: #A80036; stroke-width: 1.5;" width="91" x="126.5" y="440"/><ellipse cx="141.5" cy="456" fill="#B4A7E5" rx="11" ry="11" style="stroke: #A80036; stroke-width: 1.0;"/><path d="M138.0938,450.2813 L138.0938,449.875 L144.4063,449.875 L144.4063,450.2813 L141.875,450.2813 Q141.875,450.2813 142.0234,450.4141 Q142.1719,450.5469 142.1719,450.8125 L142.1719,460.2969 Q142.1719,460.5625 142.3906,460.6953 Q142.6094,460.8281 142.6094,460.8281 L144.4063,460.8281 L144.4063,461.2344 L138.0938,461.2344 L138.0938,460.8281 L139.625,460.8281 Q139.9531,460.8281 140.0859,460.6953 Q140.2188,460.5625 140.2188,460.2969 L140.2188,450.8125 Q140.2188,450.5469 140.0859,450.4141 Q139.9531,450.2813 139.625,450.2813 L138.0938,450.2813 Z "/><text fill="#000000" font-family="sans-serif" font-size="12" font-style="italic" lengthAdjust="spacingAndGlyphs" textLength="59" x="155.5" y="461.5576">EventLoop</text><line style="stroke: #A80036; stroke-width: 1.5;" x1="127.5" x2="216.5" y1="472" y2="472"/><line style="stroke: #A80036; stroke-width: 1.5;" x1="127.5" x2="216.5" y1="480" y2="480"/><!--reverse link ScheduledExecutorService to EventExecutorGroup--><path d="M172,76.024 C172,89.579 172,104.038 172,115.678 " fill="none" id="ScheduledExecutorService&lt;-EventExecutorGroup" style="stroke: #A80036; stroke-width: 1.0;"/><polygon fill="none" points="165,76,172,56,179,76,165,76" style="stroke: #A80036; stroke-width: 1.0;"/><!--reverse link EventExecutorGroup to EventExecutor--><path d="M145.438,180.656 C135.73,195.15 125.068,211.068 116.621,223.678 " fill="none" id="EventExecutorGroup&lt;-EventExecutor" style="stroke: #A80036; stroke-width: 1.0;"/><polygon fill="none" points="139.648,176.722,156.594,164,151.28,184.513,139.648,176.722" style="stroke: #A80036; stroke-width: 1.0;"/><!--reverse link EventExecutor to OrderedEventExecutor--><path d="M94.1,292.024 C91.926,305.579 89.6071,320.038 87.7403,331.678 " fill="none" id="EventExecutor&lt;-OrderedEventExecutor" style="stroke: #A80036; stroke-width: 1.0;"/><polygon fill="none" points="87.2324,290.64,97.3113,272,101.0558,292.857,87.2324,290.64" style="stroke: #A80036; stroke-width: 1.0;"/><!--reverse link EventExecutorGroup to EventLoopGroup--><path d="M189.201,182.83 C207.489,227.304 235.755,296.04 250.427,331.72 " fill="none" id="EventExecutorGroup&lt;-EventLoopGroup" style="stroke: #A80036; stroke-width: 1.0;"/><polygon fill="none" points="182.717,185.469,181.585,164.309,195.665,180.144,182.717,185.469" style="stroke: #A80036; stroke-width: 1.0;"/><!--reverse link EventLoopGroup to EventLoop--><path d="M227.87,395.7021 C215.628,410.4485 202.06,426.7909 191.361,439.6784 " fill="none" id="EventLoopGroup&lt;-EventLoop" style="stroke: #A80036; stroke-width: 1.0;"/><polygon fill="none" points="222.744,390.9173,240.905,380,233.516,399.8599,222.744,390.9173" style="stroke: #A80036; stroke-width: 1.0;"/><!--reverse link OrderedEventExecutor to EventLoop--><path d="M116.13,395.7021 C128.372,410.4485 141.94,426.7909 152.639,439.6784 " fill="none" id="OrderedEventExecutor&lt;-EventLoop" style="stroke: #A80036; stroke-width: 1.0;"/><polygon fill="none" points="110.484,399.8599,103.0947,380,121.256,390.9173,110.484,399.8599" style="stroke: #A80036; stroke-width: 1.0;"/><!--
@startuml
interface ScheduledExecutorService
interface EventExecutorGroup extends ScheduledExecutorService
interface EventExecutor extends EventExecutorGroup
interface OrderedEventExecutor extends EventExecutor
interface EventLoopGroup extends EventExecutorGroup
interface EventLoop extends EventLoopGroup,OrderedEventExecutor
@enduml

PlantUML version 1.2019.09(Tue Aug 27 00:19:51 CST 2019)
(GPL source distribution)
Java Runtime: Java(TM) SE Runtime Environment
JVM: Java HotSpot(TM) 64-Bit Server VM
Java Version: 1.8.0_231-b11
Operating System: Windows 10
OS Version: 10.0
Default Encoding: GBK
Language: zh
Country: CN
--></g></svg>